<svg xmlns="http://www.w3.org/2000/svg" width="48" height="51" fill="none" viewBox="0 0 48 51"><path id="namesvg" stroke="#000" stroke-linecap="round" stroke-linejoin="round" d="M4.5 1.25C4.5 7.17468 4.19207 12.8071 3.41667 18.6944C2.92255 22.446 2.37958 26.2142 1.94444 29.9722C1.72436 31.873 1 33.8289 1 35.7361C1 35.9633 0.75 36.7118 0.75 36.125C0.75 35.6411 1.136 35.3255 1.23611 34.875C1.50122 33.682 2.25 32.4995 2.25 31.25"/><path stroke="#000" stroke-linecap="round" stroke-linejoin="round" d="M14.5 5.75C12.713 7.5912 11.5165 9.71697 10.375 12C9.5761 13.5978 8.5123 15.0592 7.54167 16.5556C7.12239 17.2019 6.61968 18.169 5.875 18.5C4.96948 18.9025 4.31658 20.3302 3.875 21.125C3.6786 21.4785 3.25 22.2294 3.25 21.5C3.25 20.6759 4.11426 20.75 4.75 20.75C5.81393 20.75 8.75 21.6365 8.75 23C8.75 24.1803 9.76248 25.7781 10.25 26.875C10.7589 28.0201 11.6283 29.1471 12.3889 30.125C13.0548 30.9812 13.8605 31.9994 14.5556 32.6944C15.1547 33.2936 15.9617 34.5 17 34.5"/><path stroke="#000" stroke-linecap="round" stroke-linejoin="round" d="M22.25 32C22.6908 30.7036 24.1587 28.8679 23.7361 27.3889C23.5934 26.8896 21.3035 27.3786 21 27.5C19.5913 28.0635 18.3372 31.2163 20 32.1944C20.5152 32.4975 21.1182 32.8977 21.5 33.375C21.8263 33.7829 23.8068 33.5178 24.2639 33.375C26.3135 32.7345 26.5 31.5146 26.5 29.5"/><path stroke="#000" stroke-linecap="round" stroke-linejoin="round" d="M28.75 27.25C28.75 28.4167 28.75 29.5833 28.75 30.75C28.75 31.228 28.75 32.8419 28.75 31.5C28.75 30.0417 29.1287 27.9641 30 26.875C30.4495 26.3131 31.2108 26.5 31.875 26.5C32.5972 26.5 32.8845 27.2885 32.9861 28C33.2066 29.5436 32.75 31.0844 32.75 32.5"/><path stroke="#000" stroke-linecap="round" stroke-linejoin="round" d="M35.75 27.25C35.75 28.4537 35.75 29.6574 35.75 30.8611C35.75 31.8728 36 32.5649 36 31.125C36 29.1934 36.2773 27.5316 36.5 25.75C36.5834 25.0829 37.9638 25.0691 38.375 25.3889C39.1507 25.9922 39.1623 27.1798 39.875 27.75C40.6534 28.3727 39.75 31.6478 39.75 32.5"/><path stroke="#000" stroke-linecap="round" stroke-linejoin="round" d="M42.5 25.25C42.5 26.4583 42.5 27.6667 42.5 28.875C42.5 29.9266 43.1748 30.406 43.75 31.125C44.3086 31.8232 45.6449 31.0392 45.9444 30.5C46.4065 29.6683 46.25 28.6789 46.25 27.75C46.25 27.3333 46.25 26.9167 46.25 26.5C46.25 25.701 46.1548 26.5738 46.375 26.75C46.7687 27.065 46.5 28.8687 46.5 29.375C46.5 31.5757 46.4216 33.3437 45.6944 35.4444C45.0948 37.1769 44.4023 38.877 44.0139 40.625C43.5799 42.578 42.2271 46.3237 40.5556 47.5C37.7896 49.4464 33.6758 49.75 30.3611 49.75C28.1766 49.75 25 49.3818 25 46.75"/></svg>